<?xml version="1.0" encoding="UTF-8" standalone="no"?><!DOCTYPE svg PUBLIC "-//W3C//DTD SVG 1.1//EN" "http://www.w3.org/Graphics/SVG/1.1/DTD/svg11.dtd"><svg width="100%" height="100%" viewBox="0 0 272 110" version="1.1" xmlns="http://www.w3.org/2000/svg" xmlns:xlink="http://www.w3.org/1999/xlink" xml:space="preserve" xmlns:serif="http://www.serif.com/" style="fill-rule:evenodd;clip-rule:evenodd;stroke-linejoin:round;stroke-miterlimit:2;"><path d="M137.302,59.94l-44.939,0l14.991,29.982l-4.935,9.856l-19.919,-39.838l-14.488,28.977l-8.012,-0l0,-38.988l-20,-0l0,12.59c-2.943,-1.704 -6.358,-2.679 -10,-2.679l-30,-0l0,50.089l20,-0l0,-10.089l10,-0c3.642,-0 7.057,-0.975 10,-2.679l0,7.779l59.835,0l-2.503,5l20.018,0l8.39,-16.759c2.542,9.642 11.326,16.759 21.76,16.759c6.855,0 12.998,-3.072 17.126,-7.913c1.51,4.275 5.587,7.341 10.376,7.341c-0,0 4,0 4,0c3.151,0 5.994,-1.328 8,-3.454c2.006,2.126 4.849,3.454 8,3.454c-0,0 4,0 4,0c4.793,0 8.875,-3.073 10.38,-7.354c4.129,4.849 10.277,7.926 17.138,7.926c12.418,0 22.5,-10.081 22.5,-22.5c-0,-12.418 -10.082,-22.5 -22.5,-22.5c-12.418,0 -22.5,10.082 -22.5,22.5c-0,0.08 0,0.159 0.001,0.239l-0.019,10.689c-0,2.76 -2.241,5 -5,5l-4,0c-2.76,0 -5,-2.24 -5,-5l-0,-4.428l7,-14l-20,0l7,14l-0,4.428c-0,2.76 -2.241,5 -5,5l-4,0c-2.76,0 -5,-2.24 -5,-5l-0,-10.952l-0.002,-0c-0.014,-12.408 -10.091,-22.476 -22.5,-22.476c-2.985,0 -5.836,0.583 -8.443,1.641l3.325,-6.641l-0.294,0l1.796,-1.256c-3.445,-4.921 -5.425,-5.978 -7.757,-6.802c-1.196,-0.422 -2.552,-0.713 -4.521,-1.67c-10.939,-5.318 -9.969,-4.917 -12.609,-7.557c-1.011,-1.011 -1.462,-1.995 -1.987,-3.095c-0.744,-1.556 -1.561,-3.299 -3.249,-5.496c-1.205,-1.569 -0.43,-3.294 0.452,-4.715c1.253,-2.017 3.06,-3.583 3.595,-3.979c3.875,-2.877 8.212,-1.236 12.548,1.438c4.823,2.974 9.593,7.413 13.843,10.895c3.22,2.639 6.211,4.743 8.729,5.625c9.504,3.328 11.258,5.263 12.755,6.612c1.388,1.251 2.596,2.197 6.814,2.943c8.348,1.475 32.632,0.507 46.472,-4.108c2.697,-0.9 4.32,-2.304 5.285,-3.925c1.354,-2.273 1.414,-5.194 0.567,-8.489c-0.784,-3.051 -2.333,-6.524 -3.409,-9.983c-0.85,-2.732 -1.484,-5.445 -0.586,-7.82c2.959,-7.826 5.975,-11.511 9.366,-12.378c2.23,-0.57 4.44,0.251 6.544,1.491c2.501,1.476 4.835,3.601 6.866,5.591c0.056,0.566 0.315,3.461 0.174,5.914c-0.548,9.525 -3.215,24.918 -3.807,32.618c-0.223,2.91 -0.024,4.982 0.329,5.812c0.496,1.165 1.307,1.708 2.061,1.96c0.796,0.267 1.491,1.017 2.235,1.963c1.627,2.07 3.146,5.088 4.602,8.49c3.96,9.253 7.345,21.203 10.099,26.711c1.103,2.206 2.504,3.809 3.816,5.327c1.288,1.491 2.534,2.825 2.534,5.331l6,0c-0,-3.667 -1.319,-5.993 -3.085,-8.174c-1.237,-1.53 -2.788,-2.945 -3.899,-5.167c-3.196,-6.392 -7.232,-21.512 -12.055,-30.91c-2.036,-3.967 -4.36,-6.946 -6.691,-8.448c0.048,-1.363 0.182,-4.307 0.516,-7.101c1.06,-8.854 3.134,-21.785 3.407,-29.616c0.095,-2.715 -0.048,-4.897 -0.419,-6.265c-0.309,-1.142 -0.814,-1.942 -1.335,-2.456c-2.949,-2.905 -6.519,-6.059 -10.282,-7.79c-2.955,-1.358 -6.035,-1.877 -9.096,-1.094c-4.584,1.171 -9.492,5.49 -13.492,16.068c-0.935,2.471 -0.983,5.181 -0.476,7.979c0.635,3.507 2.173,7.181 3.368,10.563c0.51,1.444 0.953,2.825 1.169,4.1c0.165,0.974 0.248,1.858 -0.115,2.591c-0.324,0.656 -1.035,1.063 -2.09,1.415c-12.964,4.324 -35.709,5.274 -43.528,3.891c-3.128,-0.552 -3.501,-1.209 -4.728,-2.297c-1.736,-1.541 -4.644,-3.769 -13.903,-7.012c-2.013,-0.705 -4.335,-2.493 -6.91,-4.603c-4.443,-3.641 -9.453,-8.251 -14.495,-11.361c-6.629,-4.088 -13.351,-5.546 -19.274,-1.149c-0.922,0.684 -4.477,3.785 -6.123,7.53c-1.35,3.07 -1.524,6.488 0.893,9.636c1.672,2.178 2.279,3.832 3.023,5.308c0.677,1.345 1.438,2.58 2.729,3.872c2.996,2.996 1.814,2.675 14.229,8.71c1.749,0.851 3.086,1.271 4.243,1.636c1.479,0.466 2.507,0.87 4.076,2.696Zm-77.302,44.989l0,0.011l0.006,-0.011l-0.006,-0Zm150.021,-17.273l0,-0.24l-0.001,-0c0.013,-9.095 7.401,-16.476 16.5,-16.476c9.106,0 16.5,7.394 16.5,16.5c-0,9.107 -7.394,16.5 -16.5,16.5c-9.035,0 -16.383,-7.277 -16.499,-16.284Zm-62.521,-16.716c9.107,0 16.5,7.394 16.5,16.5c-0,9.107 -7.393,16.5 -16.5,16.5c-9.107,0 -16.5,-7.393 -16.5,-16.5c0,-9.106 7.393,-16.5 16.5,-16.5Zm79.02,5.5c6.071,0 11,4.929 11,11c-0,6.071 -4.929,11 -11,11c-6.071,0 -11,-4.929 -11,-11c-0,-6.071 4.929,-11 11,-11Zm-79.02,0c6.071,0 11,4.929 11,11c-0,6.071 -4.929,11 -11,11c-6.071,0 -11,-4.929 -11,-11c-0,-6.071 4.929,-11 11,-11Z"/></svg>