<svg viewBox="0 0 272 110" xmlns="http://www.w3.org/2000/svg" xml:space="preserve" style="fill-rule:evenodd;clip-rule:evenodd;stroke-linejoin:round;stroke-miterlimit:2"><path d="M137.302 59.94H92.363l14.991 29.982-4.935 9.856L82.5 59.94 68.012 88.917H60V49.929H40v12.59a19.893 19.893 0 0 0-10-2.679H0v50.089h20V99.84h10c3.642 0 7.057-.975 10-2.679v7.779h59.835l-2.503 5h20.018l8.39-16.759c2.542 9.642 11.326 16.759 21.76 16.759 6.855 0 12.998-3.072 17.126-7.913 1.51 4.275 5.587 7.341 10.376 7.341h4c3.151 0 5.994-1.328 8-3.454a10.969 10.969 0 0 0 8 3.454h4c4.793 0 8.875-3.073 10.38-7.354 4.129 4.849 10.277 7.926 17.138 7.926 12.418 0 22.5-10.081 22.5-22.5 0-12.418-10.082-22.5-22.5-22.5s-22.5 10.082-22.5 22.5l.001.239-.019 10.689c0 2.76-2.241 5-5 5h-4c-2.76 0-5-2.24-5-5V93.94l7-14h-20l7 14v4.428c0 2.76-2.241 5-5 5h-4c-2.76 0-5-2.24-5-5V87.416H170c-.014-12.408-10.091-22.476-22.5-22.476-2.985 0-5.836.583-8.443 1.641l3.325-6.641h-.294l1.796-1.256c-3.445-4.921-5.425-5.978-7.757-6.802-1.196-.422-2.552-.713-4.521-1.67-10.939-5.318-9.969-4.917-12.609-7.557-1.011-1.011-1.462-1.995-1.987-3.095-.744-1.556-1.561-3.299-3.249-5.496-1.205-1.569-.43-3.294.452-4.715 1.253-2.017 3.06-3.583 3.595-3.979 3.875-2.877 8.212-1.236 12.548 1.438 4.823 2.974 9.593 7.413 13.843 10.895 3.22 2.639 6.211 4.743 8.729 5.625 9.504 3.328 11.258 5.263 12.755 6.612 1.388 1.251 2.596 2.197 6.814 2.943 8.348 1.475 32.632.507 46.472-4.108 2.697-.9 4.32-2.304 5.285-3.925 1.354-2.273 1.414-5.194.567-8.489-.784-3.051-2.333-6.524-3.409-9.983-.85-2.732-1.484-5.445-.586-7.82 2.959-7.826 5.975-11.511 9.366-12.378 2.23-.57 4.44.251 6.544 1.491 2.501 1.476 4.835 3.601 6.866 5.591.056.566.315 3.461.174 5.914-.548 9.525-3.215 24.918-3.807 32.618-.223 2.91-.024 4.982.329 5.812.496 1.165 1.307 1.708 2.061 1.96.796.267 1.491 1.017 2.235 1.963 1.627 2.07 3.146 5.088 4.602 8.49 3.96 9.253 7.345 21.203 10.099 26.711 1.103 2.206 2.504 3.809 3.816 5.327 1.288 1.491 2.534 2.825 2.534 5.331h6c0-3.667-1.319-5.993-3.085-8.174-1.237-1.53-2.788-2.945-3.899-5.167-3.196-6.392-7.232-21.512-12.055-30.91-2.036-3.967-4.36-6.946-6.691-8.448.048-1.363.182-4.307.516-7.101 1.06-8.854 3.134-21.785 3.407-29.616.095-2.715-.048-4.897-.419-6.265-.309-1.142-.814-1.942-1.335-2.456-2.949-2.905-6.519-6.059-10.282-7.79-2.955-1.358-6.035-1.877-9.096-1.094-4.584 1.171-9.492 5.49-13.492 16.068-.935 2.471-.983 5.181-.476 7.979.635 3.507 2.173 7.181 3.368 10.563.51 1.444.953 2.825 1.169 4.1.165.974.248 1.858-.115 2.591-.324.656-1.035 1.063-2.09 1.415-12.964 4.324-35.709 5.274-43.528 3.891-3.128-.552-3.501-1.209-4.728-2.297-1.736-1.541-4.644-3.769-13.903-7.012-2.013-.705-4.335-2.493-6.91-4.603-4.443-3.641-9.453-8.251-14.495-11.361-6.629-4.088-13.351-5.546-19.274-1.149-.922.684-4.477 3.785-6.123 7.53-1.35 3.07-1.524 6.488.893 9.636 1.672 2.178 2.279 3.832 3.023 5.308.677 1.345 1.438 2.58 2.729 3.872 2.996 2.996 1.814 2.675 14.229 8.71 1.749.851 3.086 1.271 4.243 1.636 1.479.466 2.507.87 4.076 2.696zM60 104.929v.011l.006-.011H60zm150.021-17.273v-.24h-.001c.013-9.095 7.401-16.476 16.5-16.476 9.106 0 16.5 7.394 16.5 16.5 0 9.107-7.394 16.5-16.5 16.5-9.035 0-16.383-7.277-16.499-16.284zM147.5 70.94c9.107 0 16.5 7.394 16.5 16.5 0 9.107-7.393 16.5-16.5 16.5S131 96.547 131 87.44c0-9.106 7.393-16.5 16.5-16.5zm79.02 5.5c6.071 0 11 4.929 11 11s-4.929 11-11 11-11-4.929-11-11 4.929-11 11-11zm-79.02 0c6.071 0 11 4.929 11 11s-4.929 11-11 11-11-4.929-11-11 4.929-11 11-11z" style="fill:#fff"/></svg>