<svg width="24" height="25" viewBox="0 0 24 25" fill="none" xmlns="http://www.w3.org/2000/svg">
  <mask id="mask0_2741_1027" style="mask-type:alpha" maskUnits="userSpaceOnUse" x="0" y="0" width="24" height="25">
    <rect y="0.749996" width="24" height="24" fill="#D9D9D9" />
  </mask>
  <g mask="url(#mask0_2741_1027)">
    <path
      d="M6.5 11.75L12 2.75L17.5 11.75H6.5ZM17.5 22.75C16.25 22.75 15.1875 22.3125 14.3125 21.4375C13.4375 20.5625 13 19.5 13 18.25C13 17 13.4375 15.9375 14.3125 15.0625C15.1875 14.1875 16.25 13.75 17.5 13.75C18.75 13.75 19.8125 14.1875 20.6875 15.0625C21.5625 15.9375 22 17 22 18.25C22 19.5 21.5625 20.5625 20.6875 21.4375C19.8125 22.3125 18.75 22.75 17.5 22.75ZM3 22.25V14.25H11V22.25H3Z"
      fill="#1C1B1F" />
  </g>
</svg>